<svg width="15" height="13" viewBox="0 0 15 13" fill="none" xmlns="http://www.w3.org/2000/svg">
<path d="M13.9286 2.4186H1.68367C1.4807 2.4186 1.28604 2.33897 1.14252 2.19723C0.998998 2.05549 0.918367 1.86325 0.918367 1.66279C0.918367 1.46234 0.998998 1.27009 1.14252 1.12835C1.28604 0.986607 1.4807 0.906977 1.68367 0.906977H12.0918C12.2136 0.906977 12.3304 0.859199 12.4165 0.774153C12.5026 0.689108 12.551 0.573761 12.551 0.453488C12.551 0.333216 12.5026 0.217869 12.4165 0.132824C12.3304 0.047778 12.2136 0 12.0918 0H1.68367C1.23714 0 0.808886 0.175186 0.493136 0.48702C0.177386 0.798854 0 1.22179 0 1.66279V11.3372C0 11.7782 0.177386 12.2011 0.493136 12.513C0.808886 12.8248 1.23714 13 1.68367 13H13.9286C14.2127 13 14.4853 12.8885 14.6862 12.6901C14.8871 12.4916 15 12.2225 15 11.9419V3.47674C15 3.19611 14.8871 2.92697 14.6862 2.72853C14.4853 2.53009 14.2127 2.4186 13.9286 2.4186ZM14.0816 11.9419C14.0816 11.982 14.0655 12.0204 14.0368 12.0487C14.0081 12.0771 13.9692 12.093 13.9286 12.093H1.68367C1.4807 12.093 1.28604 12.0134 1.14252 11.8717C0.998998 11.7299 0.918367 11.5377 0.918367 11.3372V3.14343C1.15515 3.26346 1.41753 3.32591 1.68367 3.32558H13.9286C13.9692 3.32558 14.0081 3.34151 14.0368 3.36986C14.0655 3.3982 14.0816 3.43665 14.0816 3.47674V11.9419ZM11.9388 7.40698C11.9388 7.55646 11.8939 7.70259 11.8098 7.82688C11.7257 7.95118 11.6062 8.04805 11.4663 8.10526C11.3265 8.16246 11.1726 8.17743 11.0242 8.14827C10.8757 8.1191 10.7393 8.04712 10.6323 7.94142C10.5253 7.83572 10.4524 7.70104 10.4229 7.55443C10.3933 7.40781 10.4085 7.25585 10.4664 7.11774C10.5243 6.97963 10.6224 6.86159 10.7483 6.77854C10.8741 6.69549 11.0221 6.65116 11.1735 6.65116C11.3764 6.65116 11.5711 6.73079 11.7146 6.87253C11.8581 7.01428 11.9388 7.20652 11.9388 7.40698Z" fill="white"/>
</svg>
