<svg width="16" height="16" viewBox="0 0 16 16" fill="none" xmlns="http://www.w3.org/2000/svg">
<g clip-path="url(#clip0_3024_5)">
<path d="M2.79867 14.4513L4.986 13.722C5.50267 13.55 5.76067 13.464 6.00334 13.3486C6.28978 13.212 6.56049 13.0446 6.81067 12.8493C7.02267 12.684 7.21534 12.4913 7.6 12.1066L13.2807 6.42664L13.8987 5.80864C14.3903 5.31702 14.6665 4.65024 14.6665 3.95498C14.6665 3.25972 14.3903 2.59293 13.8987 2.10131C13.407 1.60969 12.7403 1.3335 12.045 1.3335C11.3497 1.3335 10.683 1.60969 10.1913 2.10131L9.57334 2.71931L3.892 8.39931C3.50734 8.78464 3.31467 8.97731 3.14934 9.18931C2.95407 9.43949 2.78664 9.7102 2.65 9.99664C2.53467 10.2393 2.44867 10.498 2.27667 11.014L1.54734 13.2013M13.2807 6.42664C13.2807 6.42664 11.968 6.34931 10.8093 5.19064C9.65067 4.03264 9.574 2.71931 9.574 2.71931M2.79867 14.4513L2.264 14.63C2.13937 14.6718 2.00556 14.678 1.87759 14.6479C1.74963 14.6178 1.6326 14.5526 1.53965 14.4597C1.4467 14.3667 1.38152 14.2497 1.35143 14.1217C1.32134 13.9938 1.32754 13.8599 1.36934 13.7353L1.548 13.2006L2.79867 14.4513Z" stroke="white"/>
</g>
<defs>
<clipPath id="clip0_3024_5">
<rect width="16" height="16" fill="white"/>
</clipPath>
</defs>
</svg>
